<mxfile host="app.diagrams.net" modified="2021-07-25T20:35:54.522Z" agent="5.0 (Windows NT 10.0; Win64; x64) AppleWebKit/537.36 (KHTML, like Gecko) Chrome/92.0.4515.107 Safari/537.36" etag="rdiVitya9_vZ2Qt87Ts3" version="14.9.2" type="github">
  <diagram name="Page-1" id="03018318-947c-dd8e-b7a3-06fadd420f32">
    <mxGraphModel dx="1635" dy="902" grid="1" gridSize="10" guides="1" tooltips="1" connect="1" arrows="1" fold="1" page="1" pageScale="1" pageWidth="1100" pageHeight="850" background="none" math="0" shadow="0">
      <root>
        <mxCell id="0" />
        <mxCell id="1" parent="0" />
        <mxCell id="677b7b8949515195-1" value="" style="whiteSpace=wrap;html=1;rounded=0;shadow=0;labelBackgroundColor=none;strokeColor=#000000;strokeWidth=1;fillColor=none;fontFamily=Verdana;fontSize=12;fontColor=#000000;align=center;comic=1;" parent="1" vertex="1">
          <mxGeometry x="350" y="30" width="470" height="804" as="geometry" />
        </mxCell>
        <mxCell id="677b7b8949515195-4" value="Plan" style="text;html=1;points=[];align=left;verticalAlign=middle;spacingTop=-4;fontSize=14;fontFamily=Verdana" parent="1" vertex="1">
          <mxGeometry x="360" y="47" width="60" height="60" as="geometry" />
        </mxCell>
        <mxCell id="677b7b8949515195-9" value="" style="line;strokeWidth=1;html=1;rounded=0;shadow=0;labelBackgroundColor=none;fillColor=none;fontFamily=Verdana;fontSize=14;fontColor=#000000;align=center;comic=1;" parent="1" vertex="1">
          <mxGeometry x="350" y="100" width="470" height="10" as="geometry" />
        </mxCell>
        <mxCell id="Ri4otbQqNxBpemyUNb08-1" value="Commit" style="text;html=1;points=[];align=left;verticalAlign=middle;spacingTop=-4;fontSize=14;fontFamily=Verdana" vertex="1" parent="1">
          <mxGeometry x="440" y="51" width="60" height="50" as="geometry" />
        </mxCell>
        <mxCell id="Ri4otbQqNxBpemyUNb08-3" value="&lt;font style=&quot;font-size: 14px&quot;&gt;Engage&lt;/font&gt;" style="rounded=0;whiteSpace=wrap;html=1;sketch=1;fillColor=#f5f5f5;strokeColor=#666666;fontColor=#333333;" vertex="1" parent="1">
          <mxGeometry x="520" y="45" width="120" height="60" as="geometry" />
        </mxCell>
        <mxCell id="Ri4otbQqNxBpemyUNb08-4" value="" style="shape=image;html=1;verticalAlign=top;verticalLabelPosition=bottom;labelBackgroundColor=#ffffff;imageAspect=0;aspect=fixed;image=https://cdn4.iconfinder.com/data/icons/evil-icons-user-interface/64/menu-128.png;sketch=1;" vertex="1" parent="1">
          <mxGeometry x="760" y="52" width="48" height="48" as="geometry" />
        </mxCell>
        <mxCell id="Ri4otbQqNxBpemyUNb08-6" value="" style="line;strokeWidth=1;html=1;rounded=0;shadow=0;labelBackgroundColor=none;fillColor=none;fontFamily=Verdana;fontSize=14;fontColor=#000000;align=center;comic=1;" vertex="1" parent="1">
          <mxGeometry x="350" y="240" width="470" height="10" as="geometry" />
        </mxCell>
      </root>
    </mxGraphModel>
  </diagram>
</mxfile>
